<?xml version="1.0" encoding="UTF-8" standalone="no"?>
<!-- Created with Inkscape (http://www.inkscape.org/) -->

<svg
   version="1.1"
   id="svg2"
   width="666.66669"
   height="666.66669"
   viewBox="0 0 666.66669 666.66669"
   sodipodi:docname="logo-text.ai"
   xmlns:inkscape="http://www.inkscape.org/namespaces/inkscape"
   xmlns:sodipodi="http://sodipodi.sourceforge.net/DTD/sodipodi-0.dtd"
   xmlns="http://www.w3.org/2000/svg"
   xmlns:svg="http://www.w3.org/2000/svg">
  <defs
     id="defs6">
    <clipPath
       clipPathUnits="userSpaceOnUse"
       id="clipPath18">
      <path
         d="M 0,500 H 500 V 0 H 0 Z"
         id="path16" />
    </clipPath>
  </defs>
  <sodipodi:namedview
     id="namedview4"
     pagecolor="#ffffff"
     bordercolor="#000000"
     borderopacity="0.25"
     inkscape:showpageshadow="2"
     inkscape:pageopacity="0.0"
     inkscape:pagecheckerboard="0"
     inkscape:deskcolor="#d1d1d1" />
  <g
     id="g8"
     inkscape:groupmode="layer"
     inkscape:label="logo-text"
     transform="matrix(1.3333333,0,0,-1.3333333,0,666.66667)">
    <path
       d="M 0,0 H 500 V 500 H 0 Z"
       style="fill:#000000;fill-opacity:1;fill-rule:nonzero;stroke:none"
       id="path10" />
    <g
       id="g12">
      <g
         id="g14"
         clip-path="url(#clipPath18)">
        <g
           id="g20"
           transform="translate(144.874,194.787)">
          <path
             d="M 0,0 C -5.306,0 -9.432,-2.554 -12.052,-6.812 -14.017,-2.424 -17.816,0 -22.991,0 c -4.715,0 -8.121,-1.966 -10.676,-5.567 v 4.78 h -9.432 v -36.024 h 9.432 l -0.065,18.93 c 0,5.697 2.62,8.973 7.532,8.973 4.52,0 6.222,-2.555 6.222,-7.139 v -20.764 h 9.367 v 18.93 c 0,5.697 2.554,8.973 7.467,8.973 4.519,0 6.222,-2.555 6.222,-7.139 v -20.764 h 9.367 v 22.794 C 12.445,-5.305 7.663,0 0,0"
             style="fill:#ffffff;fill-opacity:1;fill-rule:nonzero;stroke:none"
             id="path22" />
        </g>
        <path
           d="m 163.687,157.976 h 9.367 V 194 h -9.367 z"
           style="fill:#ffffff;fill-opacity:1;fill-rule:nonzero;stroke:none"
           id="path24" />
        <g
           id="g26"
           transform="translate(168.402,210.6379)">
          <path
             d="m 0,0 c -3.274,0 -5.828,-2.292 -5.828,-5.503 0,-3.209 2.554,-5.567 5.828,-5.567 3.406,0 5.829,2.358 5.829,5.567 C 5.829,-2.292 3.406,0 0,0"
             style="fill:#ffffff;fill-opacity:1;fill-rule:nonzero;stroke:none"
             id="path28" />
        </g>
        <g
           id="g30"
           transform="translate(200.2286,194.787)">
          <path
             d="m 0,0 c -4.978,0 -8.58,-2.03 -11.201,-5.699 v 4.912 h -9.365 v -36.024 h 9.365 v 18.93 c 0,5.894 2.817,8.973 8.123,8.973 4.978,0 6.746,-2.621 6.746,-7.335 v -20.568 h 9.366 v 22.598 C 13.034,-5.371 8.123,0 0,0"
             style="fill:#ffffff;fill-opacity:1;fill-rule:nonzero;stroke:none"
             id="path32" />
        </g>
        <g
           id="g34"
           transform="translate(237.035,166.098)">
          <path
             d="m 0,0 c -5.175,0 -9.105,3.93 -9.105,9.891 0,5.894 3.865,9.89 9.105,9.89 5.24,0 9.235,-3.996 9.235,-9.89 C 9.235,3.93 5.24,0 0,0 m 9.235,22.86 c -2.489,3.471 -6.288,5.829 -11.397,5.829 -9.236,0 -16.374,-7.663 -16.374,-18.798 0,-11.07 7.073,-18.799 16.44,-18.799 5.043,0 8.842,2.228 11.331,5.633 v -4.847 h 9.367 V 42.312 H 9.235 Z"
             style="fill:#ffffff;fill-opacity:1;fill-rule:nonzero;stroke:none"
             id="path36" />
        </g>
        <g
           id="g38"
           transform="translate(309.4403,175.0725)">
          <path
             d="m 0,0 c 0,-5.896 -2.817,-8.975 -7.99,-8.975 -4.848,0 -6.617,2.621 -6.617,7.337 v 20.566 h -9.366 V -3.67 c 0,-8.776 4.913,-14.213 12.838,-14.213 4.978,0 8.515,2.096 11.135,5.766 v -4.979 h 9.366 v 36.024 l -9.366,0 z"
             style="fill:#ffffff;fill-opacity:1;fill-rule:nonzero;stroke:none"
             id="path40" />
        </g>
        <g
           id="g42"
           transform="translate(341.4769,180.7037)">
          <path
             d="m 0,0 c -5.24,1.179 -6.877,1.507 -6.877,3.211 0,1.964 2.292,3.013 6.025,3.013 4.323,0 6.288,-1.375 7.009,-3.67 h 9.498 C 14.41,9.237 9.498,14.083 -0.523,14.083 c -9.498,0 -15.786,-4.388 -15.786,-11.987 0,-6.222 4.192,-8.514 14.409,-10.938 5.437,-1.31 8.253,-1.506 8.253,-3.93 0,-1.964 -1.965,-2.947 -6.091,-2.947 -5.829,0 -7.991,1.964 -8.711,4.847 h -9.498 c 1.31,-7.926 8.319,-12.642 17.947,-12.642 8.908,0 16.047,3.932 16.047,11.987 C 16.047,-4.322 10.284,-2.356 0,0"
             style="fill:#ffffff;fill-opacity:1;fill-rule:nonzero;stroke:none"
             id="path44" />
        </g>
        <g
           id="g46"
           transform="translate(370.9655,180.4435)">
          <path
             d="m 0,0 c 1.179,3.864 4.127,6.614 8.711,6.614 4.521,0 7.467,-2.684 8.515,-6.614 z m 8.777,14.343 c -11.004,0 -18.798,-8.055 -18.798,-18.863 0,-10.742 7.729,-18.734 18.994,-18.734 7.73,0 14.935,3.734 17.62,12.25 h -9.694 c -1.244,-2.883 -4.388,-4.521 -7.991,-4.521 -4.847,0 -8.777,2.883 -9.366,8.646 H 27.183 C 28.099,4.977 20.697,14.343 8.777,14.343"
             style="fill:#ffffff;fill-opacity:1;fill-rule:nonzero;stroke:none"
             id="path48" />
        </g>
        <g
           id="g50"
           transform="translate(263.9202,194.5908)">
          <path
             d="M 0,0 V -0.591 H -4.235 V -9.433 H 0 v -27.181 h 9.367 v 27.181 h 7.559 v 8.842 H 9.367 v 0.133 c 0,4.65 2.096,6.876 6.354,6.876 0.379,0 0.8,-0.065 1.205,-0.104 v 8.175 c -0.771,0.076 -1.532,0.117 -2.254,0.117 C 7.206,14.606 0,10.284 0,0"
             style="fill:#ffffff;fill-opacity:1;fill-rule:nonzero;stroke:none"
             id="path52" />
        </g>
        <g
           id="g54"
           transform="translate(279.0299,299.4527)">
          <path
             d="m 0,0 c 0,-16.007 -13.023,-29.03 -29.03,-29.03 -16.007,0 -29.03,13.023 -29.03,29.03 0,16.677 12.282,30.779 29.03,35.211 C -12.282,30.779 0,16.677 0,0 M 41.141,-28.972 28.624,9.413 c 0,0.002 -0.002,0.003 -0.002,0.006 -6.466,20.301 -25.131,33.939 -46.456,33.939 -3.859,0 -7.606,-0.442 -11.196,-1.257 -3.589,0.815 -7.337,1.257 -11.195,1.257 -21.325,0 -39.99,-13.638 -46.456,-33.939 -0.001,-0.003 -0.002,-0.004 -0.003,-0.006 l -12.517,-38.385 c -0.332,-1.018 -0.156,-2.134 0.473,-3.002 0.63,-0.867 1.636,-1.38 2.708,-1.38 h 7.047 v -17.44 c 0,-1.848 1.498,-3.346 3.345,-3.346 h 41.737 c 1.848,0 3.345,1.498 3.345,3.346 0,1.847 -1.497,3.345 -3.345,3.345 h -38.392 v 17.44 c 0,1.847 -1.498,3.345 -3.345,3.345 h -5.783 l 11.088,34.002 c 10e-4,0.004 10e-4,0.009 0.003,0.013 10e-4,0.004 0.003,0.007 0.005,0.011 5.289,16.645 20.085,28.094 37.325,29.208 C -56.058,28.865 -64.75,15.357 -64.75,0 c 0,-19.696 16.024,-35.721 35.72,-35.721 19.696,0 35.72,16.025 35.72,35.721 0,15.357 -8.692,28.865 -21.76,36.57 C 2.17,35.456 16.966,24.007 22.256,7.362 22.257,7.358 22.26,7.355 22.261,7.351 22.262,7.347 22.262,7.342 22.264,7.338 l 11.087,-34.002 h -5.783 c -1.847,0 -3.345,-1.498 -3.345,-3.345 v -17.44 h -38.392 c -1.847,0 -3.345,-1.498 -3.345,-3.345 0,-1.848 1.498,-3.346 3.345,-3.346 h 41.737 c 1.848,0 3.345,1.498 3.345,3.346 v 17.44 h 7.048 c 1.071,0 2.078,0.513 2.707,1.38 0.629,0.868 0.805,1.984 0.473,3.002"
             style="fill:#ffffff;fill-opacity:1;fill-rule:nonzero;stroke:none"
             id="path56" />
        </g>
      </g>
    </g>
  </g>
</svg>
